<?xml version="1.0" standalone="no"?>
<!DOCTYPE svg PUBLIC "-//W3C//DTD SVG 20010904//EN"
 "http://www.w3.org/TR/2001/REC-SVG-20010904/DTD/svg10.dtd">
<svg version="1.0" xmlns="http://www.w3.org/2000/svg"
 width="256.000000pt" height="236.000000pt" viewBox="0 0 256.000000 236.000000"
 preserveAspectRatio="xMidYMid meet">

<g transform="translate(0.000000,236.000000) scale(0.100000,-0.100000)"
fill="#000000" stroke="none">
<path d="M1193 2224 c-81 -40 -52 -164 39 -164 43 0 74 24 84 65 18 74 -54
133 -123 99z"/>
<path d="M902 2181 c-25 -15 -26 -77 -3 -124 24 -49 96 -137 113 -137 18 0 3
140 -20 192 -21 48 -67 83 -90 69z"/>
<path d="M1522 2175 c-21 -9 -38 -27 -47 -49 -21 -50 -39 -170 -28 -189 8 -15
12 -14 35 8 40 37 73 85 92 133 14 38 14 46 2 77 -8 19 -16 35 -18 35 -2 -1
-18 -7 -36 -15z"/>
<path d="M1075 1977 c0 -81 2 -93 20 -104 35 -21 55 -16 55 15 0 41 -14 83
-46 134 l-29 47 0 -92z"/>
<path d="M1360 2028 c-23 -38 -50 -121 -50 -154 0 -22 1 -22 37 -10 l37 13 1
91 c0 51 -1 92 -3 92 -1 0 -11 -15 -22 -32z"/>
<path d="M649 2000 c-23 -14 -42 -65 -35 -95 10 -38 45 -65 86 -65 41 0 76 27
86 65 8 31 -12 82 -37 95 -22 13 -79 12 -100 0z"/>
<path d="M1702 1987 c-15 -16 -22 -36 -22 -64 0 -51 34 -83 87 -83 72 0 109
85 62 144 -28 35 -95 37 -127 3z"/>
<path d="M870 1948 c0 -11 13 -48 30 -83 44 -93 68 -105 88 -48 8 26 4 33 -54
89 -50 48 -64 57 -64 42z"/>
<path d="M1559 1932 c-19 -21 -45 -45 -58 -55 -30 -20 -35 -45 -15 -75 15 -23
16 -23 36 -5 27 24 92 173 75 173 -2 0 -19 -17 -38 -38z"/>
<path d="M1033 1775 c-20 -41 -20 -44 -4 -59 9 -8 33 -22 53 -30 l36 -15 16
39 c24 61 21 78 -16 88 -18 6 -40 12 -48 15 -10 4 -22 -7 -37 -38z"/>
<path d="M1355 1803 c-21 -7 -40 -15 -42 -16 -9 -9 21 -79 39 -91 19 -14 25
-13 60 6 21 12 38 25 38 30 0 13 -42 88 -49 87 -3 -1 -24 -8 -46 -16z"/>
<path d="M1216 1772 c-2 -4 4 -8 15 -8 10 0 19 4 19 8 0 4 -6 8 -14 8 -8 0
-17 -4 -20 -8z"/>
<path d="M717 1694 l66 -67 34 19 35 18 -24 20 c-26 22 -110 62 -150 71 -23 6
-18 -3 39 -61z"/>
<path d="M1749 1745 c-29 -10 -110 -56 -128 -71 -8 -7 21 -32 45 -38 20 -5 30
0 52 26 15 18 43 47 62 65 38 35 29 40 -31 18z"/>
<path d="M468 1737 c-33 -13 -34 -22 -9 -63 14 -23 34 -36 68 -47 66 -22 149
-31 158 -17 3 6 12 8 18 4 7 -3 -10 16 -38 42 -46 43 -136 95 -160 93 -5 -1
-22 -6 -37 -12z"/>
<path d="M1896 1726 c-27 -13 -69 -43 -93 -67 -52 -51 -44 -59 47 -52 81 7
143 37 163 78 l17 35 -30 15 c-38 20 -46 19 -104 -9z"/>
<path d="M954 1666 c-3 -8 6 -32 20 -53 14 -21 26 -43 26 -50 0 -21 46 6 59
33 9 21 8 26 -7 31 -9 4 -34 17 -55 30 -31 19 -38 21 -43 9z"/>
<path d="M1454 1651 c-41 -26 -41 -28 -28 -54 20 -37 35 -33 66 18 35 58 19
73 -38 36z"/>
<path d="M850 1592 c-19 -9 -36 -17 -38 -18 -5 -3 20 -94 28 -99 11 -7 110 24
110 35 0 19 -44 100 -54 99 -6 0 -27 -8 -46 -17z"/>
<path d="M1546 1585 c-9 -14 -21 -36 -26 -50 -8 -21 -6 -27 18 -38 15 -8 41
-17 58 -20 29 -6 31 -4 46 43 l16 49 -42 21 c-53 25 -50 25 -70 -5z"/>
<path d="M577 1532 c31 -24 105 -53 152 -59 39 -6 44 -4 38 11 -4 10 -10 28
-13 40 -5 20 -11 21 -100 21 -81 0 -92 -2 -77 -13z"/>
<path d="M1713 1537 c-2 -4 -9 -22 -13 -39 l-9 -31 45 7 c47 6 115 33 147 57
15 12 5 14 -74 14 -50 0 -93 -3 -96 -8z"/>
<path d="M429 1467 c-84 -64 -14 -196 83 -156 31 13 58 54 58 89 0 34 -53 80
-92 80 -18 0 -40 -6 -49 -13z"/>
<path d="M1925 1455 c-38 -37 -35 -95 6 -129 17 -14 41 -26 54 -26 13 0 37 12
54 26 63 53 28 154 -54 154 -25 0 -44 -8 -60 -25z"/>
<path d="M898 1422 c-43 -12 -58 -21 -58 -34 0 -12 8 -18 24 -18 13 0 42 -7
65 -15 l41 -14 0 49 c0 28 -3 49 -7 49 -5 -1 -34 -9 -65 -17z"/>
<path d="M1497 1434 c-12 -12 -8 -55 6 -69 22 -21 116 7 117 35 0 3 -19 11
-42 17 -24 7 -50 14 -59 18 -8 3 -18 2 -22 -1z"/>
<path d="M702 1305 c-55 -13 -122 -44 -122 -57 0 -3 37 -8 82 -10 l81 -3 14
32 c15 36 17 53 6 52 -5 0 -32 -6 -61 -14z"/>
<path d="M1704 1278 c6 -22 14 -39 19 -39 4 1 46 1 95 1 l87 0 -43 26 c-23 14
-46 23 -51 20 -5 -4 -11 -1 -13 4 -2 6 -26 14 -54 19 l-52 8 12 -39z"/>
<path d="M822 1264 c-7 -26 -11 -48 -10 -49 40 -27 80 -45 89 -40 16 11 51 97
42 105 -11 10 -73 30 -92 30 -12 0 -21 -15 -29 -46z"/>
<path d="M1575 1300 c-11 -4 -30 -10 -42 -14 -19 -7 -20 -11 -11 -39 6 -18 19
-41 30 -53 l19 -21 45 20 c24 12 42 26 40 31 -3 6 -10 28 -17 49 -12 38 -24
43 -64 27z"/>
<path d="M1429 1225 c-1 -3 -2 -9 -3 -14 0 -5 -4 -13 -8 -17 -18 -18 -5 -41
37 -64 60 -33 73 -19 35 41 -24 40 -57 69 -61 54z"/>
<path d="M1023 1212 c-24 -4 -78 -76 -68 -91 4 -7 23 -2 55 14 41 21 48 29 46
50 -3 30 -5 32 -33 27z"/>
<path d="M556 1169 c-55 -13 -93 -39 -107 -71 -13 -31 -9 -38 32 -55 23 -10
36 -7 85 17 58 27 134 90 134 110 0 12 -90 11 -144 -1z"/>
<path d="M1768 1163 c28 -52 142 -124 195 -123 12 1 32 6 44 13 20 11 20 14 7
45 -18 43 -79 70 -179 79 -75 6 -77 6 -67 -14z"/>
<path d="M770 1152 c0 -5 -25 -34 -55 -65 -40 -41 -51 -57 -38 -57 20 0 127
50 158 73 19 14 18 15 -15 36 -38 23 -50 26 -50 13z"/>
<path d="M1652 1143 c-39 -19 -40 -26 -4 -51 67 -46 152 -75 152 -52 0 6 -3
10 -7 10 -9 0 -62 51 -91 87 -17 20 -20 21 -50 6z"/>
<path d="M1213 1103 c-16 -6 -16 -17 -2 -65 5 -21 16 -38 23 -38 13 0 35 77
28 98 -4 12 -27 15 -49 5z"/>
<path d="M1050 1083 c-14 -9 -28 -21 -31 -26 -5 -7 12 -48 36 -85 1 -1 23 3
49 10 31 8 46 17 46 29 0 28 -22 79 -31 73 -5 -3 -9 0 -9 5 0 16 -33 13 -60
-6z"/>
<path d="M1343 1088 c-10 -13 -33 -75 -33 -88 0 -4 12 -10 28 -14 15 -3 37 -8
49 -12 18 -5 25 1 42 35 12 22 21 43 21 46 0 9 -64 45 -81 45 -9 0 -21 -6 -26
-12z"/>
<path d="M924 963 c-32 -50 -54 -104 -54 -132 0 -11 11 -5 33 19 18 19 47 47
64 61 30 25 30 26 16 62 -9 20 -18 37 -22 37 -3 0 -20 -21 -37 -47z"/>
<path d="M1482 973 l-20 -39 35 -24 c19 -13 51 -45 70 -70 l35 -45 -7 35 c-10
50 -54 146 -75 165 -18 16 -20 15 -38 -22z"/>
<path d="M643 926 c-22 -19 -28 -32 -28 -66 0 -34 6 -47 28 -66 16 -13 41 -24
57 -24 16 0 41 11 57 24 22 19 28 32 28 66 0 34 -6 47 -28 66 -16 13 -41 24
-57 24 -16 0 -41 -11 -57 -24z"/>
<path d="M1725 938 c-52 -28 -63 -101 -20 -143 54 -55 145 -15 145 64 0 66
-69 110 -125 79z"/>
<path d="M1106 917 l-29 -13 2 -84 c1 -47 4 -87 7 -89 8 -9 66 131 61 149 -3
11 -1 23 4 26 13 8 11 24 -3 24 -7 -1 -26 -6 -42 -13z"/>
<path d="M1310 907 c0 -32 37 -137 58 -164 16 -22 17 -20 17 71 l0 94 -31 11
c-42 15 -44 14 -44 -12z"/>
<path d="M971 828 c-74 -72 -109 -170 -77 -213 12 -17 17 -17 46 -5 23 10 38
26 52 59 21 50 37 191 21 191 -5 0 -24 -15 -42 -32z"/>
<path d="M1446 845 c-19 -51 29 -215 70 -233 39 -19 52 -14 63 21 10 29 8 41
-13 88 -22 49 -92 139 -108 139 -3 0 -8 -7 -12 -15z"/>
<path d="M1194 715 c-56 -24 -66 -107 -16 -145 82 -65 190 47 120 123 -29 32
-65 39 -104 22z"/>
</g>
</svg>
